<svg width="60" height="60" viewBox="0 0 60 60" fill="none" xmlns="http://www.w3.org/2000/svg">
<g id="Interface / Lock">
<path id="Vector" d="M23.0762 22.5H18.0005C15.2002 22.5 13.7991 22.5 12.7295 23.045C11.7887 23.5243 11.0243 24.2887 10.545 25.2295C10 26.2991 10 27.7002 10 30.5005V44.5005C10 47.3008 10 48.7001 10.545 49.7697C11.0243 50.7105 11.7887 51.4762 12.7295 51.9556C13.798 52.5 15.1976 52.5 17.9923 52.5H42.0077C44.8025 52.5 46.2 52.5 47.2685 51.9556C48.2093 51.4762 48.9762 50.7105 49.4556 49.7697C50 48.7012 50 47.3037 50 44.5089V30.4923C50 27.6975 50 26.298 49.4556 25.2295C48.9762 24.2887 48.2093 23.5243 47.2685 23.045C46.1989 22.5 44.8007 22.5 42.0005 22.5H36.9223M23.0762 22.5H36.9223M23.0762 22.5C22.7575 22.5 22.5 22.2417 22.5 21.9231V15C22.5 10.8579 25.8579 7.5 30 7.5C34.1421 7.5 37.5 10.8579 37.5 15V21.9231C37.5 22.2417 37.241 22.5 36.9223 22.5" stroke="#EB6B06" stroke-width="3" stroke-linecap="round" stroke-linejoin="round"/>
</g>
</svg>
