<svg width="60" height="60" viewBox="0 0 60 60" fill="none" xmlns="http://www.w3.org/2000/svg">
<g id="Warning / Shield_Check">
<path id="Vector" d="M37.5 22.5L27.5 32.5L22.5 27.5M50 25.4126C50 41.8333 37.5798 49.1952 32.3145 51.5785L32.3078 51.5814C31.754 51.832 31.4765 51.9577 30.8472 52.0657C30.4487 52.1341 29.5539 52.1341 29.1553 52.0657C28.5236 51.9573 28.2431 51.8312 27.6849 51.5785C22.4195 49.1952 10 41.8332 10 25.4126V15.5005C10 12.7002 10 11.2991 10.545 10.2295C11.0243 9.28868 11.7887 8.52433 12.7295 8.04497C13.7991 7.5 15.2002 7.5 18.0005 7.5H42.0005C44.8008 7.5 46.1989 7.5 47.2685 8.04497C48.2093 8.52433 48.9762 9.28868 49.4556 10.2295C50 11.298 50 12.6975 50 15.4923V25.4126Z" stroke="#EB6B06" stroke-width="3" stroke-linecap="round" stroke-linejoin="round"/>
</g>
</svg>
