<svg width="60" height="60" viewBox="0 0 60 60" fill="none" xmlns="http://www.w3.org/2000/svg">
<rect width="60" height="60" rx="30" fill="#383A42"/>
<path d="M40.6663 42V39.3333C40.6663 37.9188 40.1044 36.5623 39.1042 35.5621C38.104 34.5619 36.7475 34 35.333 34H24.6663C23.2519 34 21.8953 34.5619 20.8951 35.5621C19.8949 36.5623 19.333 37.9188 19.333 39.3333V42" stroke="#4A4E5A" stroke-width="2" stroke-linecap="round" stroke-linejoin="round"/>
<path d="M30.0003 28.6667C32.9458 28.6667 35.3337 26.2789 35.3337 23.3333C35.3337 20.3878 32.9458 18 30.0003 18C27.0548 18 24.667 20.3878 24.667 23.3333C24.667 26.2789 27.0548 28.6667 30.0003 28.6667Z" stroke="#4A4E5A" stroke-width="2" stroke-linecap="round" stroke-linejoin="round"/>
</svg>
